<?xml version="1.0" encoding="us-ascii" standalone="no"?><svg xmlns="http://www.w3.org/2000/svg" xmlns:xlink="http://www.w3.org/1999/xlink" contentStyleType="text/css" height="275px" preserveAspectRatio="none" style="width:665px;height:275px;background:#FFFFFF;" version="1.1" viewBox="0 0 665 275" width="665px" zoomAndPan="magnify"><defs/><g><!--cluster Gest?o de Materiais--><g id="cluster_Gest&#227;o de Materiais"><rect fill="none" height="262" rx="2.5" ry="2.5" style="stroke:#181818;stroke-width:1.0;" width="558" x="101" y="7"/><text fill="#000000" font-family="sans-serif" font-size="14" font-weight="bold" lengthAdjust="spacing" textLength="141" x="309.5" y="23.5332">Gest&#227;o de Materiais</text></g><g id="elem_UC_Cadastrar"><ellipse cx="198.097" cy="152.1194" fill="#FFFFE0" rx="81.097" ry="18.6194" style="stroke:#000000;stroke-width:0.5;"/><text fill="#000000" font-family="sans-serif" font-size="14" lengthAdjust="spacing" textLength="117" x="139.0843" y="155.9982">Cadastrar material</text></g><g id="elem_UC_Unidade"><ellipse cx="519.2928" cy="229.8586" fill="#FFFFE0" rx="102.2928" ry="22.8586" style="stroke:#000000;stroke-width:0.5;"/><text fill="#000000" font-family="sans-serif" font-size="14" lengthAdjust="spacing" textLength="166" x="436.2928" y="233.5871">Definir unidade de medida</text></g><g id="elem_UC_Categoria"><ellipse cx="519.5408" cy="152.2082" fill="#FFFFE0" rx="86.5408" ry="19.7082" style="stroke:#000000;stroke-width:0.5;"/><text fill="#000000" font-family="sans-serif" font-size="14" lengthAdjust="spacing" textLength="130" x="454.5408" y="155.9367">Selecionar categoria</text></g><g id="elem_UC_Especificacoes"><ellipse cx="519.3414" cy="70.0683" fill="#FFFFE0" rx="123.3414" ry="27.0683" style="stroke:#000000;stroke-width:0.5;"/><text fill="#000000" font-family="sans-serif" font-size="14" lengthAdjust="spacing" textLength="212" x="413.3414" y="73.7968">Adicionar especifica&#231;&#245;es t&#233;cnicas</text></g><!--entity Usuario--><g id="elem_Usuario"><ellipse cx="30" cy="121.5" fill="#F1F1F1" rx="8" ry="8" style="stroke:#181818;stroke-width:0.5;"/><path d="M30,129.5 L30,156.5 M17,137.5 L43,137.5 M30,156.5 L17,171.5 M30,156.5 L43,171.5 " fill="none" style="stroke:#181818;stroke-width:0.5;"/><text fill="#000000" font-family="sans-serif" font-size="14" lengthAdjust="spacing" textLength="48" x="6" y="187.5332">Usu&#225;rio</text></g><!--link Usuario to UC_Cadastrar--><g id="link_Usuario_UC_Cadastrar"><path d="M54.08,152 C70.56,152 87.79,152 110.74,152 " fill="none" id="Usuario-to-UC_Cadastrar" style="stroke:#181818;stroke-width:1.0;"/><polygon fill="#181818" points="116.74,152,107.74,148,111.74,152,107.74,156,116.74,152" style="stroke:#181818;stroke-width:1.0;"/></g><!--link UC_Cadastrar to UC_Unidade--><g id="link_UC_Cadastrar_UC_Unidade"><path d="M253.92,165.41 C308.07,178.63 385.1613,197.4467 443.7213,211.7467 " fill="none" id="UC_Cadastrar-to-UC_Unidade" style="stroke:#181818;stroke-width:1.0;stroke-dasharray:7.0,7.0;"/><polygon fill="#181818" points="449.55,213.17,441.7558,207.1492,444.6927,211.9839,439.858,214.9208,449.55,213.17" style="stroke:#181818;stroke-width:1.0;"/><text fill="#000000" font-family="sans-serif" font-size="13" lengthAdjust="spacing" textLength="55" x="310" y="176.4951">&#171;include&#187;</text></g><!--link UC_Cadastrar to UC_Categoria--><g id="link_UC_Cadastrar_UC_Categoria"><path d="M279.21,152 C326.07,152 379.19,152 426.94,152 " fill="none" id="UC_Cadastrar-to-UC_Categoria" style="stroke:#181818;stroke-width:1.0;stroke-dasharray:7.0,7.0;"/><polygon fill="#181818" points="432.94,152,423.94,148,427.94,152,423.94,156,432.94,152" style="stroke:#181818;stroke-width:1.0;"/><text fill="#000000" font-family="sans-serif" font-size="13" lengthAdjust="spacing" textLength="55" x="310" y="148.4951">&#171;include&#187;</text></g><!--link UC_Cadastrar to UC_Especificacoes--><g id="link_UC_Cadastrar_UC_Especificacoes"><path d="M252.48,138.28 C303.37,125.21 374.7985,106.8821 432.9485,91.9521 " fill="none" id="UC_Cadastrar-to-UC_Especificacoes" style="stroke:#181818;stroke-width:1.0;stroke-dasharray:7.0,7.0;"/><polygon fill="#181818" points="438.76,90.46,429.048,88.8238,433.9171,91.7034,431.0375,96.5725,438.76,90.46" style="stroke:#181818;stroke-width:1.0;"/><text fill="#000000" font-family="sans-serif" font-size="13" lengthAdjust="spacing" textLength="55" x="310" y="107.4951">&#171;include&#187;</text></g><!--SRC=[ZP1DIWGn48NtEKNH-va3oD3WjE96LyCiN4cHLBV5P98cIJE8U1Xn8Hx04_J5hBP_p0Y2a4KgxtlrAcMfJf0y16uU4nWEf1Dxf-A1NOi1Zz2YFc13k_Ha2GOPNMCf0xf86YF1imBO2jm4tpbJUUi3t0vjxybQVnfK7mo5KTbQGTMBKgYJbCK-TlrhO5y0Hf02vQxK50x53SNKltam17UOA31oBBuZv_YYGeCn1Gnm70axzgeU5YN7hwXcnm4wnmQbhPmZ6RdFhlqev9uTMTAo7idGaj5uIVa9cHvomwNXYQVOYhLcZVrx_qaHKl-XdPHnRd2z4DfJ75OphG5Mg_By6ta1Q-DFRbrc8yC5R3RijEqCbUMVz3BnF_dp0N-PlW00]--></g></svg>